<svg width="549" height="473" viewBox="0 0 549 473" fill="none" xmlns="http://www.w3.org/2000/svg">
<path fill-rule="evenodd" clip-rule="evenodd" d="M266.158 -24.237C333.159 -20.9984 381.565 -104.105 447.569 -93.3226C512.634 -82.6938 554.011 -23.3393 586.527 28.097C620.966 82.5753 646.456 144.371 637.018 206.36C627.55 268.547 586.455 324.024 534.968 366.741C486.582 406.885 421.532 421.941 357.948 437.895C295.073 453.672 219.395 494.301 167.441 458.961C109.773 419.734 138.655 335.884 117.11 274.074C105.89 241.884 87.4879 214.281 71.5093 183.737C47.6417 138.111 -0.0276334 100.563 1.20193e-05 50.2044C0.0324925 -8.96122 8.44326 -93.8081 71.6714 -111.492C142.337 -131.257 192.216 -27.8112 266.158 -24.237Z" fill="#E87700"/>
</svg>
