<svg width="338" height="405" viewBox="0 0 338 405" fill="none" xmlns="http://www.w3.org/2000/svg">
<path fill-rule="evenodd" clip-rule="evenodd" d="M136.718 10.0049C164.33 6.90026 192.222 -5.32045 218.837 2.66111C245.733 10.7273 268.451 31.0473 284.263 54.2526C299.594 76.7538 297.979 106.08 306.846 131.824C315.868 158.017 335.169 180.56 337.282 208.182C339.498 237.138 337.405 269.846 319.136 292.421C300.606 315.317 264.641 313.182 239.668 328.8C216.6 343.227 202.174 368.508 177.883 380.763C150.71 394.472 120.745 408.302 90.6162 403.996C60.4172 399.68 31.9982 381.181 13.1248 357.214C-5.18456 333.964 -1.44975 300.688 -12.391 273.19C-21.7572 249.651 -39.3046 230.573 -46.8845 206.399C-55.3484 179.406 -67.3806 150.52 -59.3615 123.392C-51.35 96.2887 -25.3517 78.8574 -3.78462 60.5923C16.1565 43.7043 37.8436 29.0994 62.43 20.2472C86.2089 11.6857 111.604 12.8287 136.718 10.0049Z" fill="#E87700"/>
</svg>
